<svg id="svg" version="1.1" xmlns="http://www.w3.org/2000/svg" xmlns:xlink="http://www.w3.org/1999/xlink" width="400" height="179.01234567901236" viewBox="0, 0, 400,179.01234567901236"><g id="svgg"><path id="path0" d="M196.240 19.517 C 196.031 19.651,196.091 19.696,196.509 19.718 C 196.978 19.743,196.955 19.762,196.329 19.868 C 195.630 19.987,195.624 19.994,196.061 20.189 C 196.396 20.339,196.428 20.392,196.188 20.400 C 196.012 20.407,195.642 20.579,195.366 20.782 C 193.882 21.880,188.362 22.009,188.362 20.946 C 188.362 20.496,188.291 20.412,187.917 20.412 C 187.381 20.412,185.854 20.805,185.858 20.941 C 185.863 21.138,186.131 21.435,186.392 21.535 C 186.572 21.603,186.527 21.642,186.258 21.651 C 186.036 21.659,185.855 21.774,185.855 21.906 C 185.855 22.452,185.184 22.765,183.866 22.834 C 182.442 22.909,182.095 22.763,182.095 22.091 C 182.095 21.724,182.009 21.665,181.468 21.665 C 180.822 21.665,180.733 21.824,180.834 22.796 C 180.926 23.680,180.393 23.993,178.789 23.993 L 177.282 23.993 177.212 23.321 C 177.173 22.949,177.128 23.229,177.112 23.948 L 177.081 25.246 176.544 25.246 C 176.050 25.246,176.007 25.296,176.007 25.873 C 176.007 26.470,175.977 26.500,175.380 26.500 C 174.769 26.500,174.754 26.517,174.754 27.216 C 174.754 27.915,174.769 27.932,175.380 27.932 L 176.007 27.932 176.007 30.337 L 176.007 32.743 176.499 32.799 C 176.881 32.843,177.016 32.975,177.104 33.393 C 177.167 33.688,177.228 33.829,177.239 33.706 C 177.252 33.574,177.517 33.483,177.887 33.483 C 178.596 33.483,178.717 33.194,178.111 32.951 L 177.708 32.789 178.099 32.778 C 178.389 32.769,178.505 32.639,178.547 32.274 C 178.639 31.473,180.842 31.444,180.842 32.243 C 180.842 33.040,182.181 32.628,182.203 31.824 C 182.231 30.864,182.647 30.493,183.854 30.353 C 185.075 30.211,185.855 30.452,185.855 30.971 C 185.855 31.398,186.569 31.470,187.315 31.118 L 187.773 30.902 187.396 30.587 C 187.065 30.310,187.057 30.271,187.332 30.266 C 187.504 30.262,187.645 30.154,187.645 30.024 C 187.645 29.575,188.932 29.154,190.596 29.061 C 192.524 28.952,193.196 29.145,193.196 29.808 L 193.196 30.260 199.373 30.260 C 205.355 30.260,205.551 30.249,205.551 29.914 C 205.551 28.506,210.260 28.725,211.475 30.190 C 211.674 30.429,211.659 30.502,211.379 30.659 C 211.067 30.834,211.072 30.859,211.477 31.083 C 212.151 31.456,213.071 31.407,213.071 30.998 C 213.071 29.693,216.167 30.134,216.389 31.470 C 216.566 32.533,216.607 32.587,217.244 32.587 C 217.714 32.587,217.893 32.488,218.052 32.140 C 218.531 31.088,220.193 31.522,220.313 32.730 C 220.436 33.969,221.569 34.474,221.698 33.348 C 221.752 32.878,221.804 32.853,222.864 32.797 L 223.974 32.739 224.039 33.782 C 224.075 34.356,224.119 32.952,224.138 30.662 L 224.172 26.500 223.545 26.500 C 222.948 26.500,222.919 26.470,222.919 25.873 C 222.919 25.379,222.847 25.246,222.582 25.246 C 222.169 25.246,221.898 24.936,221.817 24.369 C 221.756 23.949,221.721 23.941,220.110 23.977 C 218.302 24.018,218.109 23.906,218.060 22.794 C 218.016 21.809,217.915 21.665,217.266 21.665 C 216.732 21.665,216.652 21.723,216.652 22.107 C 216.652 22.771,216.096 22.977,214.704 22.830 C 213.415 22.693,213.071 22.519,213.071 22.001 C 213.071 21.778,212.935 21.658,212.668 21.644 C 212.361 21.629,212.340 21.604,212.581 21.541 C 212.754 21.496,212.850 21.385,212.794 21.294 C 212.738 21.202,212.777 21.128,212.881 21.128 C 213.318 21.128,213.025 20.801,212.489 20.691 C 210.722 20.326,210.660 20.335,210.471 20.979 L 210.295 21.576 207.822 21.538 C 206.014 21.511,205.200 21.427,204.796 21.225 C 204.491 21.073,204.103 20.949,203.934 20.949 C 203.764 20.949,203.525 20.828,203.402 20.680 C 203.279 20.533,203.048 20.405,202.888 20.398 C 202.702 20.389,202.678 20.351,202.820 20.293 C 203.152 20.159,203.091 19.875,202.731 19.872 C 202.491 19.870,202.473 19.834,202.656 19.718 C 202.847 19.597,202.835 19.543,202.597 19.452 C 202.119 19.269,196.536 19.325,196.240 19.517 M169.875 25.373 C 170.096 25.415,170.459 25.415,170.680 25.373 C 170.902 25.330,170.721 25.295,170.278 25.295 C 169.834 25.295,169.653 25.330,169.875 25.373 M228.066 25.373 C 228.288 25.415,228.650 25.415,228.872 25.373 C 229.094 25.330,228.912 25.295,228.469 25.295 C 228.026 25.295,227.845 25.330,228.066 25.373 M148.926 36.474 C 149.147 36.516,149.510 36.516,149.731 36.474 C 149.953 36.431,149.772 36.396,149.329 36.396 C 148.885 36.396,148.704 36.431,148.926 36.474 M249.015 36.474 C 249.237 36.516,249.599 36.516,249.821 36.474 C 250.043 36.431,249.861 36.396,249.418 36.396 C 248.975 36.396,248.794 36.431,249.015 36.474 M102.198 78.801 L 102.606 79.230 109.092 79.320 C 115.916 79.414,116.237 79.390,116.570 78.768 C 116.773 78.388,116.768 78.385,116.362 78.670 C 115.729 79.113,102.901 79.111,102.233 78.667 L 101.791 78.373 102.198 78.801 M282.184 78.792 C 282.184 79.528,295.947 79.623,296.637 78.891 C 296.945 78.565,296.943 78.558,296.598 78.712 C 296.076 78.945,282.883 79.016,282.654 78.787 C 282.417 78.550,282.184 78.552,282.184 78.792 M99.955 81.603 C 154.980 81.627,245.020 81.627,300.045 81.603 C 355.069 81.578,310.049 81.557,200.000 81.557 C 89.951 81.557,44.931 81.578,99.955 81.603 " stroke="none" fill="#6c6c82" fill-rule="evenodd"></path><path id="path1" d="M188.362 19.944 C 188.362 21.356,189.348 21.611,191.748 20.821 C 192.281 20.645,192.741 20.380,192.769 20.233 C 192.797 20.085,192.874 19.783,192.939 19.561 L 193.059 19.158 190.710 19.158 L 188.362 19.158 188.362 19.944 M205.730 19.221 C 205.730 19.864,206.348 20.589,207.113 20.842 C 209.401 21.599,210.642 21.256,210.529 19.899 L 210.474 19.248 208.102 19.198 C 206.797 19.171,205.730 19.181,205.730 19.221 M182.221 20.524 C 182.152 20.594,182.095 20.910,182.095 21.227 C 182.095 22.827,184.652 22.650,184.816 21.038 L 184.870 20.501 183.609 20.449 C 182.915 20.421,182.291 20.455,182.221 20.524 M213.937 20.500 C 213.715 20.722,214.052 21.707,214.459 22.027 C 215.461 22.815,216.652 22.296,216.652 21.069 L 216.652 20.412 215.339 20.412 C 214.617 20.412,213.986 20.452,213.937 20.500 M177.172 21.881 C 177.127 22.009,177.122 22.274,177.161 22.471 C 177.201 22.668,177.239 22.912,177.247 23.014 C 177.314 23.925,179.464 23.810,179.666 22.886 C 179.923 21.713,179.966 21.759,178.556 21.702 C 177.615 21.664,177.232 21.714,177.172 21.881 M219.013 22.331 C 219.168 24.186,221.665 24.076,221.665 22.214 L 221.665 21.665 220.311 21.665 L 218.958 21.665 219.013 22.331 M173.500 23.456 C 173.500 23.977,173.475 23.993,172.650 23.995 C 171.260 23.999,170.994 24.128,170.994 24.798 C 170.994 25.817,172.578 26.171,172.628 25.162 C 172.640 24.913,172.660 24.609,172.672 24.488 C 172.714 24.080,173.321 24.140,173.875 24.606 C 174.814 25.396,175.828 24.885,175.828 23.622 L 175.828 22.919 174.664 22.919 L 173.500 22.919 173.500 23.456 M222.919 23.518 C 222.919 24.145,223.316 24.738,223.875 24.946 C 224.212 25.071,225.246 24.584,225.246 24.300 C 225.246 23.973,226.050 24.274,226.102 24.620 C 226.285 25.844,226.560 26.051,227.407 25.598 C 228.525 24.999,227.708 24.000,226.097 23.995 C 225.272 23.993,225.246 23.977,225.246 23.456 L 225.246 22.919 224.082 22.919 L 222.919 22.919 222.919 23.518 M167.306 25.903 C 167.113 26.933,167.751 27.556,168.837 27.400 C 169.289 27.335,169.561 26.794,169.516 26.052 L 169.472 25.336 168.445 25.321 C 167.418 25.305,167.418 25.306,167.306 25.903 M229.316 25.354 C 229.006 25.664,229.195 26.704,229.642 27.152 C 230.481 27.991,231.548 27.354,231.467 26.061 L 231.423 25.355 230.435 25.289 C 229.892 25.253,229.388 25.282,229.316 25.354 M164.906 27.331 C 164.906 28.223,165.255 28.648,165.989 28.648 C 167.008 28.648,167.505 26.806,166.544 26.595 C 165.316 26.325,164.906 26.510,164.906 27.331 M232.095 26.618 C 231.774 26.748,231.816 28.030,232.152 28.367 C 232.847 29.062,234.020 28.408,234.020 27.326 C 234.020 26.597,233.040 26.237,232.095 26.618 M162.527 27.864 C 162.457 27.934,162.399 28.216,162.399 28.491 C 162.399 28.982,162.381 28.991,161.191 29.043 L 159.982 29.096 159.927 29.864 C 159.882 30.488,159.949 30.697,160.285 30.977 C 161.176 31.720,162.041 31.206,162.041 29.932 C 162.041 29.172,162.258 28.965,162.535 29.460 C 163.101 30.472,164.558 29.734,164.491 28.469 C 164.459 27.851,162.992 27.399,162.527 27.864 M234.325 27.865 C 234.198 27.992,234.380 29.181,234.588 29.588 C 234.806 30.013,235.649 29.989,236.127 29.543 C 236.636 29.069,236.705 29.089,236.705 29.711 C 236.705 31.028,237.505 31.672,238.408 31.081 C 238.785 30.834,238.854 30.650,238.854 29.897 L 238.854 29.006 237.601 29.006 L 236.347 29.006 236.347 28.398 L 236.347 27.790 235.385 27.778 C 234.856 27.772,234.379 27.811,234.325 27.865 M190.063 29.741 C 189.199 30.006,188.843 30.364,188.939 30.869 C 189.020 31.293,188.977 31.320,188.111 31.382 C 187.609 31.418,188.547 31.462,190.197 31.480 L 193.196 31.513 193.196 30.807 C 193.196 29.655,191.843 29.194,190.063 29.741 M206.088 29.763 C 205.736 29.948,205.628 30.162,205.585 30.756 L 205.530 31.513 208.718 31.478 C 210.472 31.460,211.385 31.415,210.748 31.379 C 209.944 31.335,209.670 31.264,209.853 31.148 C 210.002 31.053,210.027 30.980,209.909 30.979 C 209.794 30.977,209.742 30.824,209.792 30.633 C 210.000 29.837,207.193 29.178,206.088 29.763 M157.386 30.886 C 157.386 31.478,157.353 31.513,156.783 31.513 C 156.219 31.513,156.182 31.550,156.199 32.095 L 156.217 32.677 154.966 32.766 L 153.715 32.856 153.778 33.751 C 153.852 34.812,154.042 35.094,154.682 35.094 C 155.396 35.094,155.953 34.624,155.953 34.021 C 155.953 33.361,156.246 32.587,156.497 32.587 C 156.603 32.587,156.633 32.680,156.563 32.794 C 156.482 32.925,156.514 32.952,156.650 32.868 C 156.768 32.795,156.997 32.843,157.159 32.975 C 157.322 33.106,157.399 33.122,157.332 33.009 C 157.177 32.751,157.591 32.587,158.397 32.587 C 159.478 32.587,159.714 32.346,159.714 31.238 L 159.714 30.260 158.550 30.260 L 157.386 30.260 157.386 30.886 M239.036 30.931 C 239.040 32.121,239.189 32.390,239.903 32.499 C 240.262 32.553,240.821 32.683,241.146 32.786 C 241.597 32.931,241.805 32.919,242.031 32.736 C 242.236 32.569,242.285 32.564,242.192 32.720 C 242.100 32.872,242.148 32.907,242.346 32.831 C 242.785 32.662,242.635 31.610,242.167 31.577 C 241.970 31.563,241.708 31.542,241.585 31.532 C 241.452 31.521,241.361 31.258,241.361 30.886 L 241.361 30.260 240.197 30.260 L 239.033 30.260 239.036 30.931 M183.714 31.236 C 183.450 31.517,183.336 31.807,183.398 32.042 C 183.451 32.243,183.421 32.408,183.331 32.408 C 183.242 32.408,183.169 32.492,183.169 32.595 C 183.169 32.713,183.651 32.762,184.467 32.729 L 185.765 32.677 185.820 32.022 C 185.916 30.869,184.542 30.355,183.714 31.236 M213.384 31.152 C 213.041 31.421,212.944 31.647,212.978 32.092 L 213.024 32.677 214.291 32.729 L 215.557 32.782 215.449 32.103 C 215.257 30.894,214.282 30.445,213.384 31.152 M179.319 32.588 C 179.140 32.786,179.044 32.998,179.106 33.060 C 179.418 33.372,178.826 33.825,178.020 33.888 C 177.553 33.925,177.997 33.970,179.006 33.987 L 180.842 34.020 180.842 33.321 C 180.842 32.686,180.355 32.229,179.679 32.229 C 179.659 32.229,179.497 32.391,179.319 32.588 M218.478 32.465 C 217.936 32.629,217.891 32.698,217.941 33.287 L 217.995 33.930 219.248 33.968 C 220.163 33.996,220.393 33.962,220.098 33.840 C 219.807 33.719,219.696 33.524,219.696 33.137 C 219.696 32.459,219.272 32.225,218.478 32.465 M242.758 32.861 C 242.707 32.913,242.730 33.295,242.810 33.711 C 242.891 34.127,242.960 34.515,242.964 34.573 C 242.975 34.710,243.818 35.094,244.111 35.094 C 244.235 35.094,244.513 34.930,244.729 34.729 L 245.121 34.364 245.121 34.796 C 245.121 35.984,245.315 36.347,245.949 36.347 C 246.328 36.347,246.553 36.435,246.553 36.582 C 246.553 37.300,248.370 37.945,248.744 37.359 C 248.816 37.246,248.877 37.531,248.878 37.993 C 248.881 38.831,248.882 38.833,249.552 38.903 L 250.224 38.973 249.552 39.003 L 248.881 39.033 248.881 40.824 L 248.881 42.614 249.508 42.614 L 250.134 42.614 250.104 45.792 C 250.088 47.540,250.042 48.668,250.004 48.299 C 249.938 47.667,249.898 47.628,249.318 47.628 C 248.753 47.628,248.702 47.583,248.702 47.090 C 248.702 46.608,248.642 46.551,248.120 46.530 C 247.800 46.518,247.355 46.488,247.131 46.465 C 246.906 46.442,246.647 46.553,246.554 46.712 C 246.369 47.029,246.320 46.890,246.366 46.174 C 246.403 45.607,245.959 45.121,245.405 45.121 C 245.146 45.121,244.926 44.959,244.795 44.673 C 244.680 44.420,244.441 44.226,244.244 44.226 C 244.053 44.226,243.778 44.180,243.632 44.124 C 243.479 44.065,243.184 44.220,242.935 44.489 L 242.503 44.955 242.459 44.104 C 242.410 43.164,242.198 42.793,241.711 42.793 C 241.533 42.793,241.149 42.592,240.856 42.346 C 240.215 41.806,239.937 41.788,239.350 42.250 C 238.821 42.666,238.675 42.573,238.675 41.818 C 238.675 40.588,237.614 40.054,236.762 40.855 L 236.347 41.244 236.347 40.626 C 236.347 39.310,234.475 38.495,234.025 39.615 C 233.878 39.981,233.862 39.964,233.852 39.436 C 233.833 38.454,232.293 37.565,231.603 38.137 C 231.412 38.296,231.381 38.263,231.456 37.979 C 231.536 37.673,231.475 37.631,231.039 37.688 C 230.758 37.725,230.458 37.761,230.372 37.767 C 230.286 37.774,230.326 37.916,230.462 38.083 C 230.628 38.289,230.636 38.343,230.483 38.251 C 230.333 38.161,230.260 38.238,230.260 38.485 C 230.260 38.769,230.373 38.853,230.752 38.851 C 231.024 38.850,231.155 38.790,231.045 38.717 C 230.924 38.637,230.901 38.445,230.988 38.227 C 231.124 37.884,231.130 37.885,231.142 38.262 C 231.149 38.477,231.235 38.704,231.334 38.765 C 231.432 38.825,231.513 39.152,231.513 39.491 L 231.513 40.107 232.766 40.107 L 234.020 40.107 234.020 40.734 L 234.020 41.361 235.184 41.361 C 236.403 41.361,236.359 41.329,236.419 42.256 C 236.433 42.458,236.746 42.547,237.688 42.614 L 238.938 42.704 238.920 43.286 C 238.904 43.828,238.942 43.868,239.494 43.868 C 240.030 43.868,240.090 43.922,240.141 44.449 L 240.197 45.031 241.395 45.084 L 242.593 45.137 242.648 45.711 C 242.697 46.211,242.777 46.292,243.275 46.340 C 243.773 46.388,243.854 46.469,243.902 46.967 L 243.957 47.538 245.166 47.538 L 246.375 47.538 246.375 48.120 C 246.374 48.642,246.427 48.702,246.891 48.702 C 247.340 48.702,247.424 48.785,247.525 49.321 L 247.641 49.939 248.840 49.992 L 250.039 50.045 250.021 50.627 C 250.005 51.171,250.042 51.209,250.606 51.209 C 251.175 51.209,251.209 51.243,251.209 51.835 C 251.209 52.432,251.238 52.462,251.835 52.462 C 252.432 52.462,252.462 52.492,252.462 53.089 L 252.462 53.715 253.704 53.715 L 254.946 53.715 255.002 54.297 C 255.051 54.806,255.130 54.886,255.630 54.934 C 256.127 54.983,256.208 55.064,256.256 55.561 C 256.305 56.061,256.384 56.140,256.893 56.189 C 257.426 56.240,257.475 56.297,257.475 56.860 C 257.475 57.444,257.507 57.475,258.102 57.475 C 258.699 57.475,258.729 57.505,258.729 58.102 C 258.729 58.691,258.764 58.729,259.318 58.729 C 259.843 58.729,259.906 58.782,259.900 59.221 C 259.893 59.705,259.914 59.714,261.090 59.766 L 262.288 59.819 262.344 60.393 C 262.392 60.896,262.471 60.974,262.981 61.023 C 263.375 61.061,263.570 61.177,263.584 61.381 C 263.595 61.547,263.615 61.804,263.629 61.952 C 263.643 62.117,263.876 62.242,264.235 62.276 C 264.767 62.328,264.816 62.384,264.816 62.948 C 264.816 63.532,264.849 63.563,265.443 63.563 C 266.040 63.563,266.070 63.593,266.070 64.190 C 266.070 64.787,266.100 64.816,266.697 64.816 C 267.293 64.816,267.323 64.846,267.323 65.443 C 267.323 66.040,267.353 66.070,267.950 66.070 C 268.547 66.070,268.577 66.100,268.577 66.697 C 268.577 67.293,268.606 67.323,269.203 67.323 C 269.798 67.323,269.830 67.355,269.830 67.939 C 269.830 68.502,269.879 68.559,270.412 68.610 C 270.923 68.659,271.001 68.736,271.050 69.248 L 271.106 69.830 272.258 69.830 C 273.275 69.830,273.411 69.870,273.411 70.173 C 273.411 70.825,273.620 71.083,274.146 71.083 C 274.431 71.083,274.674 71.184,274.685 71.307 C 274.696 71.430,274.716 71.652,274.730 71.799 C 274.745 71.965,274.977 72.090,275.336 72.124 C 275.868 72.176,275.918 72.232,275.918 72.796 C 275.918 73.379,275.950 73.411,276.544 73.411 C 277.141 73.411,277.171 73.441,277.171 74.038 C 277.171 74.634,277.201 74.664,277.798 74.664 C 278.395 74.664,278.424 74.694,278.424 75.291 C 278.424 75.888,278.454 75.918,279.051 75.918 C 279.648 75.918,279.678 75.947,279.678 76.544 C 279.678 77.141,279.708 77.171,280.304 77.171 C 280.898 77.171,280.931 77.203,280.931 77.780 C 280.931 78.603,281.104 78.623,289.274 78.718 C 296.703 78.804,296.867 78.784,296.867 77.802 C 296.867 77.202,296.836 77.171,296.251 77.171 C 295.688 77.171,295.631 77.122,295.580 76.589 C 295.531 76.080,295.452 76.000,294.952 75.952 C 294.455 75.904,294.374 75.823,294.326 75.325 C 294.280 74.855,294.185 74.744,293.789 74.698 C 293.392 74.652,293.297 74.541,293.251 74.071 C 293.221 73.757,293.095 73.490,292.972 73.478 C 292.849 73.466,292.587 73.446,292.390 73.433 C 292.119 73.416,292.032 73.284,292.032 72.886 C 292.032 72.325,291.615 72.054,291.073 72.262 C 290.834 72.354,290.779 72.254,290.779 71.729 C 290.779 71.113,290.751 71.083,290.164 71.083 C 289.600 71.083,289.543 71.034,289.492 70.501 C 289.443 69.990,289.366 69.913,288.854 69.863 C 288.321 69.812,288.272 69.755,288.272 69.192 C 288.272 68.608,288.240 68.577,287.645 68.577 C 287.049 68.577,287.019 68.547,287.019 67.950 C 287.019 67.353,286.989 67.323,286.392 67.323 C 285.795 67.323,285.765 67.293,285.765 66.697 C 285.765 66.100,285.736 66.070,285.139 66.070 C 284.542 66.070,284.512 66.040,284.512 65.443 C 284.512 64.849,284.481 64.816,283.897 64.816 C 283.333 64.816,283.277 64.767,283.225 64.235 C 283.179 63.753,283.086 63.643,282.687 63.597 C 282.291 63.551,282.196 63.440,282.150 62.970 C 282.120 62.656,281.994 62.389,281.871 62.377 C 281.748 62.365,281.491 62.344,281.301 62.332 C 281.046 62.316,280.939 62.155,280.898 61.728 C 280.856 61.292,280.752 61.141,280.483 61.128 C 279.741 61.090,279.678 61.044,279.678 60.539 C 279.678 60.090,279.595 60.007,279.051 59.904 C 278.503 59.802,278.424 59.721,278.424 59.258 C 278.424 58.773,278.372 58.729,277.798 58.729 C 277.201 58.729,277.171 58.699,277.171 58.102 C 277.171 57.505,277.141 57.475,276.544 57.475 C 275.947 57.475,275.918 57.446,275.918 56.849 C 275.918 56.252,275.888 56.222,275.291 56.222 C 274.694 56.222,274.664 56.192,274.664 55.595 L 274.664 54.969 273.411 54.969 L 272.158 54.969 272.158 54.342 C 272.158 53.745,272.128 53.715,271.531 53.715 C 270.953 53.715,270.904 53.673,270.904 53.174 C 270.904 52.715,270.822 52.616,270.367 52.525 C 269.925 52.436,269.830 52.329,269.830 51.922 C 269.830 51.421,269.562 51.209,268.931 51.209 C 268.688 51.209,268.584 51.054,268.543 50.627 C 268.512 50.307,268.386 50.035,268.263 50.022 C 268.140 50.010,267.883 49.990,267.693 49.978 C 267.438 49.961,267.331 49.800,267.290 49.373 C 267.240 48.859,267.172 48.791,266.697 48.791 C 266.221 48.791,266.153 48.724,266.103 48.209 L 266.047 47.628 264.805 47.628 L 263.563 47.628 263.563 47.001 C 263.563 46.404,263.533 46.374,262.936 46.374 C 262.340 46.374,262.310 46.344,262.310 45.748 C 262.310 45.151,262.280 45.121,261.683 45.121 C 261.086 45.121,261.056 45.091,261.056 44.494 C 261.056 43.897,261.027 43.868,260.430 43.868 C 259.833 43.868,259.803 43.838,259.803 43.241 L 259.803 42.614 258.639 42.614 C 257.611 42.614,257.475 42.574,257.475 42.271 C 257.475 41.619,257.267 41.361,256.740 41.361 C 256.288 41.361,256.222 41.295,256.222 40.843 C 256.222 40.319,255.964 40.107,255.323 40.107 C 255.080 40.107,254.976 39.953,254.935 39.526 L 254.879 38.944 253.671 38.891 C 252.468 38.838,252.462 38.835,252.462 38.317 C 252.462 37.863,252.381 37.781,251.835 37.678 C 251.296 37.577,251.209 37.491,251.209 37.059 C 251.209 36.444,251.040 36.378,249.731 36.485 L 248.702 36.569 248.702 35.921 C 248.702 35.300,248.676 35.273,248.075 35.273 C 247.478 35.273,247.449 35.243,247.449 34.646 L 247.449 34.020 246.285 34.020 L 245.121 34.020 245.121 33.393 L 245.121 32.766 243.987 32.766 C 243.363 32.766,242.810 32.809,242.758 32.861 M175.737 33.843 C 175.675 33.943,175.618 34.265,175.610 34.559 C 175.594 35.116,174.765 35.368,174.478 34.904 C 173.933 34.022,172.683 34.494,172.575 35.622 L 172.506 36.347 173.630 36.347 L 174.754 36.347 174.754 35.819 C 174.754 35.295,174.765 35.290,175.873 35.237 L 176.992 35.184 177.046 34.535 C 177.108 33.794,176.098 33.259,175.737 33.843 M221.953 33.894 C 221.155 34.477,221.643 35.175,222.916 35.273 C 224.011 35.357,224.077 35.388,224.080 35.810 C 224.082 36.234,224.142 36.261,225.201 36.311 L 226.321 36.364 226.321 35.736 C 226.321 34.593,225.383 34.069,224.530 34.736 C 223.848 35.269,223.123 35.219,223.233 34.645 C 223.390 33.823,222.647 33.387,221.953 33.894 M151.298 34.646 C 151.298 35.243,151.268 35.273,150.671 35.273 C 150.070 35.273,150.045 35.299,150.045 35.925 L 150.045 36.577 149.045 36.473 C 147.787 36.343,147.538 36.441,147.538 37.063 C 147.538 37.490,147.449 37.578,146.911 37.678 C 146.363 37.781,146.285 37.862,146.285 38.325 C 146.285 38.849,146.276 38.854,145.255 38.857 C 144.287 38.859,143.728 39.017,143.763 39.277 C 143.845 39.889,143.743 40.108,143.375 40.110 C 142.900 40.113,142.621 40.289,142.596 40.600 C 142.586 40.723,142.566 40.944,142.551 41.092 C 142.534 41.264,142.335 41.361,141.996 41.361 C 141.534 41.361,141.452 41.440,141.350 41.979 C 141.235 42.598,141.234 42.598,140.134 42.651 C 139.035 42.704,139.033 42.705,138.977 43.286 C 138.926 43.818,138.869 43.868,138.306 43.868 C 137.724 43.868,137.690 43.901,137.690 44.483 C 137.690 45.046,137.641 45.103,137.108 45.154 C 136.597 45.204,136.520 45.281,136.470 45.792 C 136.419 46.325,136.362 46.374,135.799 46.374 C 135.215 46.374,135.184 46.406,135.184 47.001 L 135.184 47.628 133.942 47.628 L 132.700 47.628 132.643 48.209 C 132.594 48.720,132.523 48.791,132.066 48.791 C 131.623 48.791,131.534 48.872,131.472 49.325 C 131.385 49.972,131.441 49.917,130.794 50.004 C 130.341 50.065,130.260 50.155,130.260 50.594 C 130.260 51.030,130.174 51.128,129.722 51.206 C 129.271 51.285,129.176 51.393,129.129 51.881 C 129.091 52.274,128.975 52.469,128.771 52.483 C 128.605 52.494,128.348 52.514,128.201 52.527 C 128.036 52.542,127.910 52.773,127.877 53.123 C 127.828 53.620,127.747 53.701,127.250 53.750 C 126.750 53.798,126.672 53.878,126.622 54.387 L 126.566 54.969 125.324 54.969 L 124.082 54.969 124.082 55.595 C 124.082 56.192,124.053 56.222,123.456 56.222 C 122.861 56.222,122.829 56.253,122.829 56.837 C 122.829 57.401,122.780 57.457,122.247 57.509 C 121.735 57.558,121.658 57.635,121.609 58.147 C 121.558 58.680,121.501 58.729,120.938 58.729 C 120.599 58.729,120.332 58.789,120.343 58.863 C 120.447 59.518,120.286 59.794,119.740 59.896 C 119.274 59.984,119.153 60.097,119.131 60.465 C 119.100 60.986,118.760 61.271,118.329 61.136 C 118.109 61.068,118.007 61.202,117.918 61.678 C 117.806 62.276,117.549 62.437,116.876 62.331 C 116.802 62.319,116.741 62.587,116.741 62.925 C 116.741 63.488,116.692 63.545,116.159 63.597 C 115.650 63.646,115.571 63.724,115.522 64.224 C 115.474 64.721,115.393 64.803,114.895 64.851 C 114.398 64.899,114.317 64.980,114.269 65.477 C 114.221 65.975,114.140 66.056,113.642 66.104 C 113.145 66.152,113.064 66.233,113.015 66.731 C 112.967 67.228,112.886 67.309,112.389 67.357 C 111.891 67.406,111.810 67.487,111.762 67.984 C 111.714 68.482,111.633 68.563,111.135 68.611 C 110.638 68.659,110.557 68.740,110.509 69.237 C 110.461 69.735,110.379 69.816,109.882 69.864 C 109.382 69.913,109.304 69.992,109.255 70.501 C 109.203 71.034,109.146 71.083,108.583 71.083 C 108.245 71.083,107.977 71.144,107.989 71.218 C 108.103 71.938,107.946 72.354,107.601 72.244 C 107.136 72.097,106.725 72.428,106.838 72.860 C 106.939 73.245,106.750 73.397,106.104 73.451 C 105.707 73.483,105.640 73.574,105.640 74.077 C 105.640 74.629,105.602 74.664,105.013 74.664 C 104.419 74.664,104.387 74.696,104.387 75.280 C 104.387 75.843,104.338 75.900,103.805 75.951 C 103.293 76.000,103.216 76.077,103.167 76.589 C 103.115 77.124,103.060 77.171,102.485 77.171 C 101.872 77.171,101.860 77.185,101.914 77.832 C 101.994 78.782,102.207 78.806,109.629 78.718 C 117.636 78.622,117.816 78.601,117.816 77.780 C 117.816 77.203,117.849 77.171,118.442 77.171 C 119.039 77.171,119.069 77.141,119.069 76.544 C 119.069 75.947,119.099 75.918,119.696 75.918 C 120.292 75.918,120.322 75.888,120.322 75.291 C 120.322 74.694,120.352 74.664,120.949 74.664 C 121.546 74.664,121.576 74.634,121.576 74.038 C 121.576 73.441,121.605 73.411,122.202 73.411 C 122.799 73.411,122.829 73.381,122.829 72.784 C 122.829 72.187,122.859 72.158,123.456 72.158 C 124.030 72.158,124.082 72.113,124.082 71.632 C 124.082 71.169,124.153 71.099,124.664 71.050 C 125.174 71.001,125.253 70.923,125.302 70.420 L 125.357 69.846 126.555 69.793 L 127.753 69.740 127.808 69.169 C 127.856 68.672,127.937 68.591,128.435 68.542 C 128.935 68.494,129.013 68.414,129.062 67.905 C 129.112 67.393,129.182 67.323,129.644 67.323 C 130.126 67.323,130.170 67.270,130.170 66.697 C 130.170 66.100,130.200 66.070,130.797 66.070 C 131.394 66.070,131.423 66.040,131.423 65.443 C 131.423 64.846,131.453 64.816,132.050 64.816 C 132.647 64.816,132.677 64.787,132.677 64.190 C 132.677 63.593,132.707 63.563,133.303 63.563 C 133.900 63.563,133.930 63.533,133.930 62.936 C 133.930 62.340,133.960 62.310,134.557 62.310 C 135.154 62.310,135.184 62.280,135.184 61.683 C 135.184 61.086,135.213 61.056,135.810 61.056 C 136.407 61.056,136.437 61.027,136.437 60.430 L 136.437 59.803 137.690 59.803 L 138.944 59.803 138.944 59.277 C 138.944 58.815,139.014 58.745,139.526 58.695 C 140.037 58.646,140.114 58.569,140.164 58.057 C 140.213 57.546,140.283 57.475,140.745 57.475 C 141.225 57.475,141.271 57.421,141.271 56.860 C 141.271 56.297,141.320 56.240,141.853 56.189 C 142.368 56.139,142.445 56.060,142.525 55.506 C 142.608 54.921,142.653 54.883,143.196 54.937 C 143.755 54.993,143.778 54.970,143.778 54.355 L 143.778 53.715 145.031 53.715 L 146.285 53.715 146.285 53.089 C 146.285 52.492,146.315 52.462,146.911 52.462 C 147.508 52.462,147.538 52.432,147.538 51.835 C 147.538 51.238,147.568 51.209,148.165 51.209 C 148.762 51.209,148.791 51.179,148.791 50.582 L 148.791 49.955 150.045 49.955 L 151.298 49.955 151.298 49.340 C 151.298 48.777,151.347 48.720,151.880 48.668 C 152.365 48.622,152.471 48.530,152.519 48.120 C 152.574 47.640,152.604 47.628,153.727 47.628 L 154.879 47.628 154.879 47.001 C 154.879 46.404,154.909 46.374,155.506 46.374 C 156.103 46.374,156.132 46.344,156.132 45.748 L 156.132 45.121 157.386 45.121 L 158.639 45.121 158.639 44.494 C 158.639 43.897,158.669 43.868,159.266 43.868 C 159.861 43.868,159.893 43.836,159.893 43.249 L 159.893 42.631 161.101 42.578 L 162.310 42.525 162.365 41.863 C 162.432 41.054,161.928 40.466,161.168 40.466 C 160.526 40.466,160.253 40.782,160.172 41.624 C 160.089 42.475,160.046 42.504,159.309 42.196 C 158.720 41.950,158.659 41.959,158.187 42.364 C 157.912 42.601,157.458 42.793,157.175 42.793 C 156.586 42.793,156.312 43.289,156.312 44.351 L 156.312 44.991 155.870 44.549 C 155.276 43.955,154.437 44.059,154.068 44.773 C 153.877 45.143,153.652 45.292,153.224 45.333 C 152.665 45.387,152.637 45.427,152.551 46.285 C 152.497 46.832,152.406 47.093,152.317 46.956 C 152.237 46.833,152.237 46.731,152.317 46.730 C 152.982 46.717,151.705 46.379,150.985 46.377 L 150.045 46.374 150.045 47.001 C 150.045 47.598,150.015 47.628,149.418 47.628 L 148.791 47.628 148.791 44.494 L 148.791 41.361 149.418 41.361 L 150.045 41.361 150.045 39.481 L 150.045 37.601 150.943 37.601 C 151.791 37.601,151.858 37.566,152.136 36.983 C 152.364 36.504,152.554 36.354,152.983 36.312 C 153.530 36.258,153.537 36.245,153.590 35.139 L 153.643 34.020 152.470 34.020 L 151.298 34.020 151.298 34.646 M170.201 35.913 C 170.040 36.073,169.919 36.497,169.919 36.897 L 169.919 37.601 171.083 37.601 L 172.247 37.601 172.247 36.974 C 172.247 35.853,170.939 35.175,170.201 35.913 M227.216 35.757 C 226.767 35.943,226.519 36.406,226.539 37.019 L 226.558 37.601 227.782 37.601 L 229.006 37.601 229.001 37.019 C 228.991 36.040,228.084 35.398,227.216 35.757 M165.464 38.357 C 165.017 38.640,164.901 38.840,164.882 39.364 C 164.866 39.781,164.829 39.872,164.780 39.615 C 164.552 38.434,162.578 39.288,162.578 40.568 L 162.578 41.361 163.653 41.361 L 164.727 41.361 164.727 40.734 L 164.727 40.107 165.961 40.107 L 167.196 40.107 167.277 39.346 C 167.414 38.055,166.623 37.623,165.464 38.357 M168.129 38.417 C 168.129 38.571,168.048 38.646,167.950 38.585 C 167.851 38.525,167.771 38.560,167.771 38.664 C 167.771 38.769,167.932 38.854,168.129 38.854 C 168.368 38.854,168.487 38.735,168.487 38.496 C 168.487 38.299,168.406 38.138,168.308 38.138 C 168.209 38.138,168.129 38.263,168.129 38.417 M49.552 81.782 L -0.000 81.827 -0.000 82.632 L 0.000 83.438 47.807 83.438 L 95.613 83.438 95.613 83.963 C 95.613 84.401,95.533 84.498,95.127 84.545 C 94.752 84.589,94.602 84.735,94.474 85.184 C 94.337 85.665,94.220 85.765,93.797 85.765 C 93.332 85.765,93.286 85.822,93.286 86.392 C 93.286 86.989,93.256 87.019,92.659 87.019 C 92.062 87.019,92.032 87.049,92.032 87.645 C 92.032 88.242,92.002 88.272,91.406 88.272 C 90.809 88.272,90.779 88.302,90.779 88.899 C 90.779 89.496,90.749 89.526,90.152 89.526 C 89.555 89.526,89.526 89.555,89.526 90.152 C 89.526 90.749,89.496 90.779,88.899 90.779 C 88.302 90.779,88.272 90.809,88.272 91.406 C 88.272 92.002,88.242 92.032,87.645 92.032 C 87.049 92.032,87.019 92.062,87.019 92.659 C 87.019 93.256,86.989 93.286,86.392 93.286 C 85.795 93.286,85.765 93.315,85.765 93.912 C 85.765 94.509,85.736 94.539,85.139 94.539 C 84.569 94.539,84.512 94.585,84.512 95.050 C 84.512 95.474,84.412 95.590,83.930 95.727 C 83.482 95.855,83.335 96.005,83.292 96.380 C 83.244 96.786,83.148 96.867,82.710 96.867 C 82.229 96.867,82.184 96.919,82.184 97.493 C 82.184 98.090,82.155 98.120,81.558 98.120 C 80.961 98.120,80.931 98.150,80.931 98.747 C 80.931 99.343,80.901 99.373,80.304 99.373 C 79.708 99.373,79.678 99.403,79.678 100.000 C 79.678 100.597,79.648 100.627,79.051 100.627 C 78.454 100.627,78.424 100.657,78.424 101.253 C 78.424 101.850,78.395 101.880,77.798 101.880 C 77.201 101.880,77.171 101.910,77.171 102.507 C 77.171 103.104,77.141 103.133,76.544 103.133 C 75.949 103.133,75.918 103.164,75.918 103.752 L 75.918 104.370 74.709 104.423 L 73.500 104.476 73.445 105.048 C 73.397 105.545,73.316 105.626,72.818 105.674 C 72.319 105.723,72.240 105.802,72.191 106.312 C 72.142 106.817,72.069 106.893,71.631 106.893 C 71.221 106.893,71.109 106.988,71.025 107.406 C 70.947 107.801,70.797 107.944,70.376 108.029 C 69.912 108.122,69.830 108.219,69.830 108.679 C 69.830 109.179,69.781 109.221,69.203 109.221 C 68.606 109.221,68.577 109.251,68.577 109.848 C 68.577 110.445,68.547 110.474,67.950 110.474 C 67.353 110.474,67.323 110.504,67.323 111.101 C 67.323 111.698,67.293 111.728,66.697 111.728 C 66.100 111.728,66.070 111.758,66.070 112.355 C 66.070 112.951,66.040 112.981,65.443 112.981 C 64.846 112.981,64.816 113.011,64.816 113.608 C 64.816 114.205,64.787 114.235,64.190 114.235 C 63.593 114.235,63.563 114.264,63.563 114.861 C 63.563 115.458,63.533 115.488,62.936 115.488 C 62.340 115.488,62.310 115.518,62.310 116.115 L 62.310 116.741 61.165 116.741 C 59.972 116.741,59.803 116.854,59.803 117.651 C 59.803 117.913,59.676 117.995,59.266 117.995 C 58.771 117.995,58.729 118.044,58.729 118.621 C 58.729 119.218,58.699 119.248,58.102 119.248 C 57.528 119.248,57.475 119.292,57.475 119.774 C 57.475 120.236,57.405 120.306,56.893 120.356 C 56.384 120.405,56.305 120.483,56.256 120.986 L 56.201 121.560 55.003 121.612 L 53.805 121.665 53.749 122.247 C 53.697 122.780,53.641 122.829,53.077 122.829 C 52.493 122.829,52.462 122.861,52.462 123.456 C 52.462 124.053,52.432 124.082,51.835 124.082 C 51.238 124.082,51.209 124.112,51.209 124.709 C 51.209 125.306,51.179 125.336,50.582 125.336 C 49.985 125.336,49.955 125.366,49.955 125.962 L 49.955 126.589 48.811 126.589 L 47.667 126.589 47.550 127.216 C 47.447 127.764,47.366 127.842,46.903 127.842 C 46.418 127.842,46.374 127.894,46.374 128.469 L 46.374 129.096 45.121 129.096 L 43.868 129.096 43.868 129.722 C 43.868 130.319,43.838 130.349,43.241 130.349 C 42.667 130.349,42.614 130.393,42.614 130.875 C 42.614 131.396,42.600 131.403,41.361 131.525 C 40.136 131.646,40.107 131.660,40.107 132.151 C 40.107 132.588,40.031 132.662,39.526 132.710 C 39.016 132.759,38.937 132.837,38.888 133.340 L 38.833 133.914 37.635 133.967 L 36.437 134.020 36.381 134.602 L 36.325 135.184 35.172 135.184 L 34.020 135.184 34.020 135.810 C 34.020 136.407,33.990 136.437,33.393 136.437 C 32.796 136.437,32.766 136.467,32.766 137.064 L 32.766 137.690 31.513 137.690 L 30.260 137.690 30.260 138.317 L 30.260 138.944 29.006 138.944 L 27.753 138.944 27.753 139.570 L 27.753 140.197 26.500 140.197 L 25.246 140.197 25.246 140.824 L 25.246 141.450 23.456 141.450 L 21.665 141.450 21.665 142.077 L 21.665 142.704 19.785 142.704 L 17.905 142.704 17.905 143.241 L 17.905 143.778 16.308 143.778 C 14.357 143.778,14.145 143.849,14.145 144.509 L 14.145 145.023 11.146 145.072 L 8.147 145.121 8.091 145.703 L 8.035 146.285 4.017 146.285 L 0.000 146.285 0.000 151.835 L 0.000 157.386 3.402 157.386 L 6.804 157.386 6.804 156.759 L 6.804 156.132 10.474 156.132 L 14.145 156.132 14.145 155.600 L 14.145 155.068 16.607 155.018 L 19.069 154.969 19.125 154.393 L 19.180 153.817 21.005 153.766 L 22.829 153.715 22.885 153.133 L 22.941 152.551 24.720 152.551 L 26.500 152.551 26.500 151.931 L 26.500 151.311 28.335 151.260 L 30.170 151.209 30.226 150.635 L 30.281 150.061 31.479 150.008 L 32.677 149.955 32.733 149.373 L 32.789 148.791 34.031 148.791 L 35.273 148.791 35.273 148.165 L 35.273 147.538 36.437 147.538 L 37.601 147.538 37.601 146.911 L 37.601 146.285 38.854 146.285 L 40.107 146.285 40.107 145.658 C 40.107 145.061,40.137 145.031,40.734 145.031 C 41.331 145.031,41.361 145.001,41.361 144.405 L 41.361 143.778 42.614 143.778 L 43.868 143.778 43.868 143.249 C 43.868 142.721,43.869 142.720,45.076 142.667 L 46.285 142.614 46.341 142.032 C 46.390 141.521,46.460 141.450,46.923 141.450 C 47.404 141.450,47.449 141.398,47.449 140.824 L 47.449 140.197 48.702 140.197 L 49.955 140.197 49.955 139.570 C 49.955 138.973,49.985 138.944,50.582 138.944 C 51.179 138.944,51.209 138.914,51.209 138.317 L 51.209 137.690 52.462 137.690 L 53.715 137.690 53.715 137.064 C 53.715 136.467,53.745 136.437,54.342 136.437 C 54.939 136.437,54.969 136.407,54.969 135.810 C 54.969 135.213,54.999 135.184,55.595 135.184 C 56.192 135.184,56.222 135.154,56.222 134.557 L 56.222 133.930 57.475 133.930 L 58.729 133.930 58.729 133.303 C 58.729 132.727,58.771 132.677,59.266 132.677 C 59.760 132.677,59.803 132.627,59.803 132.050 C 59.803 131.453,59.833 131.423,60.430 131.423 C 61.007 131.423,61.056 131.381,61.056 130.886 L 61.056 130.349 62.310 130.349 L 63.563 130.349 63.563 129.722 C 63.563 129.126,63.593 129.096,64.190 129.096 C 64.787 129.096,64.816 129.066,64.816 128.469 C 64.816 127.872,64.846 127.842,65.443 127.842 C 66.040 127.842,66.070 127.813,66.070 127.216 C 66.070 126.619,66.100 126.589,66.697 126.589 C 67.293 126.589,67.323 126.559,67.323 125.962 C 67.323 125.366,67.353 125.336,67.950 125.336 C 68.547 125.336,68.577 125.306,68.577 124.709 L 68.577 124.082 69.740 124.082 L 70.904 124.082 70.904 123.456 C 70.904 122.859,70.934 122.829,71.531 122.829 C 72.128 122.829,72.158 122.799,72.158 122.202 C 72.158 121.605,72.187 121.576,72.784 121.576 C 73.381 121.576,73.411 121.546,73.411 120.949 C 73.411 120.352,73.441 120.322,74.038 120.322 C 74.615 120.322,74.664 120.280,74.664 119.785 C 74.664 119.291,74.714 119.248,75.291 119.248 C 75.888 119.248,75.918 119.218,75.918 118.621 C 75.918 118.024,75.947 117.995,76.544 117.995 C 77.139 117.995,77.171 117.963,77.171 117.379 C 77.171 116.816,77.220 116.759,77.753 116.708 C 78.262 116.659,78.342 116.580,78.390 116.080 C 78.438 115.583,78.519 115.502,79.017 115.454 C 79.514 115.406,79.595 115.325,79.644 114.827 C 79.692 114.330,79.773 114.249,80.270 114.200 C 80.770 114.152,80.849 114.072,80.898 113.563 C 80.949 113.030,81.006 112.981,81.569 112.981 C 82.153 112.981,82.184 112.949,82.184 112.355 L 82.184 111.728 83.348 111.728 L 84.512 111.728 84.512 111.101 C 84.512 110.504,84.542 110.474,85.139 110.474 C 85.736 110.474,85.765 110.445,85.765 109.848 C 85.765 109.251,85.795 109.221,86.392 109.221 C 86.989 109.221,87.019 109.191,87.019 108.594 C 87.019 107.998,87.049 107.968,87.645 107.968 C 88.219 107.968,88.272 107.924,88.272 107.442 C 88.272 106.980,88.342 106.909,88.854 106.860 C 89.363 106.811,89.443 106.733,89.491 106.233 C 89.539 105.735,89.621 105.654,90.118 105.606 C 90.615 105.558,90.696 105.477,90.745 104.979 C 90.793 104.482,90.874 104.401,91.371 104.353 C 91.869 104.304,91.950 104.223,91.998 103.726 C 92.046 103.228,92.127 103.147,92.625 103.099 C 93.125 103.051,93.203 102.971,93.252 102.462 C 93.302 101.950,93.372 101.880,93.834 101.880 C 94.316 101.880,94.360 101.827,94.360 101.253 C 94.360 100.657,94.390 100.627,94.987 100.627 C 95.583 100.627,95.613 100.597,95.613 100.000 C 95.613 99.403,95.643 99.373,96.240 99.373 C 96.837 99.373,96.867 99.343,96.867 98.747 C 96.867 98.150,96.896 98.120,97.493 98.120 C 98.090 98.120,98.120 98.090,98.120 97.493 C 98.120 96.896,98.150 96.867,98.747 96.867 C 99.343 96.867,99.373 96.837,99.373 96.240 C 99.373 95.643,99.403 95.613,100.000 95.613 C 100.574 95.613,100.627 95.569,100.627 95.087 C 100.627 94.625,100.697 94.555,101.209 94.506 C 101.718 94.456,101.797 94.378,101.846 93.878 C 101.894 93.381,101.975 93.300,102.473 93.251 C 102.970 93.203,103.051 93.122,103.099 92.625 C 103.147 92.127,103.228 92.046,103.726 91.998 C 104.223 91.950,104.304 91.869,104.353 91.371 C 104.401 90.874,104.482 90.793,104.979 90.745 C 105.479 90.696,105.558 90.617,105.607 90.107 C 105.656 89.596,105.726 89.526,106.189 89.526 C 106.670 89.526,106.714 89.473,106.714 88.899 C 106.714 88.302,106.744 88.272,107.341 88.272 C 107.938 88.272,107.968 88.242,107.968 87.645 C 107.968 87.049,107.998 87.019,108.594 87.019 C 109.191 87.019,109.221 86.989,109.221 86.392 C 109.221 85.795,109.251 85.765,109.848 85.765 C 110.445 85.765,110.474 85.736,110.474 85.139 C 110.474 84.542,110.504 84.512,111.101 84.512 C 111.678 84.512,111.728 84.469,111.728 83.975 L 111.728 83.438 199.373 83.438 L 287.019 83.438 287.019 83.975 C 287.019 84.469,287.069 84.512,287.645 84.512 C 288.242 84.512,288.272 84.542,288.272 85.139 C 288.272 85.736,288.302 85.765,288.899 85.765 C 289.496 85.765,289.526 85.795,289.526 86.392 C 289.526 86.989,289.555 87.019,290.152 87.019 C 290.749 87.019,290.779 87.049,290.779 87.645 C 290.779 88.242,290.809 88.272,291.406 88.272 C 292.002 88.272,292.032 88.302,292.032 88.899 C 292.032 89.496,292.062 89.526,292.659 89.526 C 293.256 89.526,293.286 89.555,293.286 90.152 C 293.286 90.727,293.329 90.779,293.815 90.779 C 294.277 90.779,294.358 90.857,294.461 91.406 C 294.563 91.946,294.648 92.032,295.085 92.032 C 295.525 92.032,295.598 92.108,295.647 92.614 C 295.696 93.123,295.774 93.203,296.274 93.251 C 296.772 93.300,296.853 93.381,296.901 93.878 C 296.949 94.378,297.029 94.456,297.538 94.506 C 298.050 94.555,298.120 94.625,298.120 95.087 C 298.120 95.569,298.173 95.613,298.747 95.613 C 299.343 95.613,299.373 95.643,299.373 96.240 C 299.373 96.837,299.403 96.867,300.000 96.867 C 300.597 96.867,300.627 96.896,300.627 97.493 C 300.627 98.090,300.657 98.120,301.253 98.120 C 301.850 98.120,301.880 98.150,301.880 98.747 C 301.880 99.343,301.910 99.373,302.507 99.373 C 303.104 99.373,303.133 99.403,303.133 100.000 C 303.133 100.597,303.163 100.627,303.760 100.627 C 304.357 100.627,304.387 100.657,304.387 101.253 C 304.387 101.850,304.417 101.880,305.013 101.880 C 305.610 101.880,305.640 101.910,305.640 102.507 C 305.640 103.084,305.683 103.133,306.177 103.133 C 306.587 103.133,306.714 103.215,306.714 103.477 C 306.714 104.124,306.924 104.387,307.438 104.387 C 307.879 104.387,307.952 104.462,308.001 104.969 C 308.050 105.478,308.129 105.557,308.629 105.606 C 309.126 105.654,309.207 105.735,309.255 106.233 C 309.304 106.733,309.383 106.811,309.893 106.860 C 310.404 106.909,310.474 106.980,310.474 107.442 C 310.474 107.731,310.542 107.968,310.625 107.968 C 310.707 107.968,310.867 108.169,310.979 108.415 C 311.091 108.662,311.294 108.863,311.430 108.863 C 311.603 108.863,311.709 109.217,311.788 110.059 C 311.923 111.509,311.992 111.586,313.243 111.690 C 314.234 111.772,314.235 111.773,314.235 112.377 L 314.235 112.981 315.488 112.981 L 316.741 112.981 316.741 114.235 L 316.741 115.488 317.259 115.488 C 317.786 115.488,317.995 115.746,317.995 116.398 C 317.995 116.658,318.121 116.741,318.520 116.741 C 318.983 116.741,319.053 116.812,319.102 117.323 C 319.151 117.832,319.230 117.912,319.730 117.960 C 320.227 118.009,320.308 118.090,320.356 118.587 C 320.405 119.087,320.485 119.165,320.994 119.215 C 321.505 119.264,321.576 119.334,321.576 119.796 C 321.576 120.278,321.628 120.322,322.202 120.322 C 322.799 120.322,322.829 120.352,322.829 120.949 C 322.829 121.546,322.859 121.576,323.456 121.576 C 324.053 121.576,324.082 121.605,324.082 122.202 C 324.082 122.799,324.112 122.829,324.709 122.829 C 325.306 122.829,325.336 122.859,325.336 123.456 L 325.336 124.082 326.589 124.082 L 327.842 124.082 327.842 124.709 C 327.842 125.306,327.872 125.336,328.469 125.336 C 329.066 125.336,329.096 125.366,329.096 125.962 C 329.096 126.536,329.140 126.589,329.622 126.589 C 330.084 126.589,330.154 126.659,330.204 127.171 C 330.253 127.680,330.331 127.760,330.831 127.808 C 331.328 127.856,331.409 127.937,331.458 128.435 L 331.513 129.006 332.711 129.059 L 333.909 129.112 333.964 129.686 C 334.013 130.188,334.092 130.267,334.602 130.316 C 335.113 130.365,335.184 130.435,335.184 130.898 C 335.184 131.379,335.236 131.423,335.810 131.423 C 336.407 131.423,336.437 131.453,336.437 132.050 L 336.437 132.677 337.690 132.677 L 338.944 132.677 338.944 133.303 L 338.944 133.930 340.088 133.930 L 341.231 133.930 341.349 134.557 C 341.451 135.101,341.534 135.184,341.984 135.184 C 342.437 135.184,342.509 135.256,342.558 135.765 L 342.614 136.347 343.823 136.400 L 345.031 136.453 345.031 137.072 C 345.031 137.659,345.063 137.690,345.658 137.690 C 346.255 137.690,346.285 137.720,346.285 138.317 L 346.285 138.944 347.538 138.944 L 348.791 138.944 348.791 139.570 L 348.791 140.197 350.045 140.197 L 351.298 140.197 351.298 140.824 L 351.298 141.450 352.462 141.450 C 353.490 141.450,353.626 141.490,353.626 141.794 C 353.626 142.441,353.835 142.704,354.349 142.704 C 354.768 142.704,354.865 142.788,354.912 143.196 C 354.967 143.673,355.007 143.690,356.177 143.741 L 357.386 143.794 357.386 144.413 L 357.386 145.031 358.639 145.031 L 359.893 145.031 359.893 145.658 L 359.893 146.285 361.146 146.285 L 362.399 146.285 362.399 146.911 L 362.399 147.538 363.653 147.538 L 364.906 147.538 364.906 148.165 L 364.906 148.791 366.058 148.791 L 367.211 148.791 367.267 149.373 C 367.316 149.882,367.395 149.962,367.895 150.011 C 368.392 150.059,368.473 150.140,368.521 150.637 L 368.577 151.209 370.412 151.260 L 372.247 151.311 372.247 151.931 L 372.247 152.551 374.127 152.551 L 376.007 152.551 376.007 153.178 L 376.007 153.805 377.786 153.805 L 379.565 153.805 379.622 154.387 L 379.678 154.969 382.140 155.018 L 384.602 155.068 384.602 155.600 L 384.602 156.132 388.272 156.132 L 391.943 156.132 391.943 156.759 L 391.943 157.386 395.971 157.386 L 400.000 157.386 400.000 151.835 L 400.000 146.285 395.345 146.285 L 390.689 146.285 390.689 145.658 L 390.689 145.031 388.496 145.026 C 386.918 145.022,386.391 144.969,386.616 144.838 C 387.078 144.569,387.054 143.141,386.583 142.889 C 385.744 142.440,384.876 142.709,384.683 143.477 C 384.598 143.817,384.473 143.946,384.296 143.878 C 384.153 143.823,383.035 143.778,381.812 143.778 L 379.588 143.778 379.588 143.241 L 379.588 142.704 378.335 142.704 L 377.081 142.704 377.081 142.077 L 377.081 141.450 375.929 141.450 L 374.776 141.450 374.720 140.868 L 374.664 140.286 372.829 140.235 L 370.994 140.184 370.994 139.564 L 370.994 138.944 369.740 138.944 L 368.487 138.944 368.487 138.317 L 368.487 137.690 367.234 137.690 L 365.980 137.690 365.980 137.064 L 365.980 136.437 364.828 136.437 L 363.675 136.437 363.619 135.855 L 363.563 135.273 362.365 135.220 L 361.167 135.168 361.112 134.594 C 361.063 134.091,360.984 134.013,360.474 133.964 C 359.968 133.915,359.893 133.842,359.893 133.401 C 359.893 132.792,359.648 132.677,358.356 132.677 C 357.402 132.677,357.386 132.668,357.386 132.151 C 357.386 131.630,357.372 131.623,356.132 131.501 C 354.900 131.379,354.879 131.368,354.879 130.863 C 354.879 130.350,354.876 130.349,353.727 130.349 L 352.574 130.349 352.518 129.767 C 352.469 129.258,352.391 129.178,351.891 129.130 C 351.393 129.082,351.312 129.001,351.264 128.503 L 351.209 127.932 350.000 127.879 L 348.791 127.826 348.791 127.208 L 348.791 126.589 347.538 126.589 L 346.285 126.589 346.285 125.962 C 346.285 125.366,346.255 125.336,345.658 125.336 C 345.061 125.336,345.031 125.306,345.031 124.709 C 345.031 124.114,345.000 124.082,344.416 124.082 C 343.853 124.082,343.796 124.033,343.745 123.500 L 343.688 122.919 342.480 122.866 L 341.271 122.813 341.271 122.194 C 341.271 121.626,341.227 121.576,340.734 121.576 C 340.283 121.576,340.197 121.505,340.197 121.134 C 340.197 120.560,339.728 120.322,338.597 120.322 C 337.709 120.322,337.690 120.311,337.690 119.785 C 337.690 119.291,337.641 119.248,337.064 119.248 C 336.467 119.248,336.437 119.218,336.437 118.621 C 336.437 118.024,336.407 117.995,335.810 117.995 C 335.213 117.995,335.184 117.965,335.184 117.368 C 335.184 116.771,335.154 116.741,334.557 116.741 C 333.960 116.741,333.930 116.711,333.930 116.115 L 333.930 115.488 332.677 115.488 L 331.423 115.488 331.423 114.861 C 331.423 114.264,331.394 114.235,330.797 114.235 C 330.200 114.235,330.170 114.205,330.170 113.608 C 330.170 113.034,330.126 112.981,329.644 112.981 C 329.182 112.981,329.112 112.911,329.062 112.399 C 329.013 111.890,328.935 111.810,328.435 111.762 C 327.937 111.714,327.856 111.633,327.808 111.135 C 327.760 110.638,327.679 110.557,327.182 110.509 C 326.684 110.461,326.603 110.379,326.555 109.882 C 326.506 109.382,326.427 109.304,325.918 109.255 L 325.336 109.198 325.336 108.046 L 325.336 106.893 324.709 106.893 C 324.112 106.893,324.082 106.864,324.082 106.267 C 324.082 105.670,324.053 105.640,323.456 105.640 C 322.859 105.640,322.829 105.610,322.829 105.013 C 322.829 104.417,322.799 104.387,322.202 104.387 C 321.605 104.387,321.576 104.357,321.576 103.760 C 321.576 103.163,321.546 103.133,320.949 103.133 L 320.322 103.133 320.322 101.880 L 320.322 100.627 319.696 100.627 C 319.099 100.627,319.069 100.597,319.069 100.000 C 319.069 99.403,319.039 99.373,318.442 99.373 C 317.845 99.373,317.816 99.343,317.816 98.747 C 317.816 98.173,317.771 98.120,317.290 98.120 C 316.827 98.120,316.757 98.050,316.708 97.538 C 316.659 97.026,316.582 96.949,316.070 96.900 C 315.564 96.851,315.488 96.778,315.488 96.338 C 315.488 95.902,315.402 95.816,314.861 95.715 C 314.313 95.612,314.235 95.531,314.235 95.068 C 314.235 94.583,314.183 94.539,313.608 94.539 C 313.011 94.539,312.981 94.509,312.981 93.912 C 312.981 93.315,312.951 93.286,312.355 93.286 C 311.758 93.286,311.728 93.256,311.728 92.659 C 311.728 92.062,311.698 92.032,311.101 92.032 C 310.504 92.032,310.474 92.002,310.474 91.406 C 310.474 90.809,310.445 90.779,309.848 90.779 C 309.251 90.779,309.221 90.749,309.221 90.152 C 309.221 89.555,309.191 89.526,308.594 89.526 C 307.998 89.526,307.968 89.496,307.968 88.899 C 307.968 88.302,307.938 88.272,307.341 88.272 C 306.744 88.272,306.714 88.242,306.714 87.645 C 306.714 87.072,306.670 87.019,306.189 87.019 C 305.726 87.019,305.656 86.949,305.607 86.437 C 305.557 85.925,305.480 85.848,304.969 85.799 C 304.462 85.750,304.387 85.677,304.387 85.236 C 304.387 84.721,304.124 84.512,303.477 84.512 C 303.215 84.512,303.133 84.385,303.133 83.975 L 303.133 83.438 351.567 83.438 L 400.000 83.438 400.000 82.632 L 400.000 81.826 349.910 81.821 C 322.361 81.818,254.660 81.797,199.463 81.776 C 144.266 81.754,76.806 81.757,49.552 81.782 M385.031 144.894 C 385.153 144.975,385.108 145.027,384.915 145.029 C 384.704 145.030,384.606 144.899,384.616 144.628 C 384.625 144.359,384.664 144.315,384.732 144.494 C 384.788 144.642,384.923 144.822,385.031 144.894 " stroke="none" fill="#595b6e" fill-rule="evenodd"></path><path id="path2" d="M0.000 79.403 L 0.000 80.381 199.150 80.384 C 308.682 80.386,398.682 80.338,399.150 80.278 L 400.000 80.169 400.000 79.297 L 400.000 78.424 348.507 78.424 L 297.014 78.424 296.688 78.827 C 295.992 79.687,282.184 79.567,282.184 78.702 C 282.184 78.452,274.088 78.424,199.514 78.424 L 116.844 78.424 116.479 78.878 C 116.038 79.427,116.584 79.392,109.011 79.352 L 102.803 79.320 102.271 78.872 L 101.739 78.424 50.869 78.424 L 0.000 78.424 0.000 79.403 M0.000 81.289 C 0.000 81.408,66.786 81.468,200.000 81.468 C 333.214 81.468,400.000 81.408,400.000 81.289 C 400.000 81.170,333.214 81.110,200.000 81.110 C 66.786 81.110,0.000 81.170,0.000 81.289 " stroke="none" fill="#84849c" fill-rule="evenodd"></path><path id="path3" d="M192.917 19.651 C 192.840 19.922,192.771 20.224,192.763 20.322 C 192.717 20.881,189.492 21.469,188.835 21.039 C 188.375 20.738,188.362 20.739,188.362 21.104 C 188.362 22.022,194.042 21.761,195.366 20.782 C 195.642 20.579,196.012 20.407,196.188 20.400 C 196.428 20.392,196.396 20.339,196.061 20.189 C 195.624 19.994,195.630 19.987,196.329 19.868 C 196.955 19.762,196.978 19.743,196.509 19.718 C 196.091 19.696,196.031 19.651,196.240 19.517 C 196.536 19.325,202.119 19.269,202.597 19.452 C 202.835 19.543,202.847 19.597,202.656 19.718 C 202.473 19.834,202.491 19.870,202.731 19.872 C 203.091 19.875,203.152 20.159,202.820 20.293 C 202.678 20.351,202.702 20.389,202.888 20.398 C 203.048 20.405,203.279 20.533,203.402 20.680 C 203.525 20.828,203.764 20.949,203.934 20.949 C 204.103 20.949,204.482 21.069,204.776 21.215 C 205.695 21.674,210.015 21.811,210.321 21.391 C 210.766 20.784,210.608 20.548,210.039 20.968 C 209.052 21.698,206.419 20.979,205.970 19.858 L 205.691 19.158 199.373 19.158 L 193.056 19.158 192.917 19.651 M184.818 20.994 C 184.741 22.124,183.498 22.722,182.536 22.092 C 182.034 21.763,181.848 22.312,182.328 22.710 C 183.014 23.280,185.855 22.632,185.855 21.906 C 185.855 21.774,186.036 21.656,186.258 21.644 C 186.536 21.630,186.569 21.599,186.363 21.545 C 186.106 21.477,185.753 20.962,185.896 20.864 C 185.922 20.846,186.226 20.745,186.571 20.640 C 187.167 20.458,187.141 20.447,186.027 20.430 L 184.857 20.412 184.818 20.994 M211.996 20.591 C 212.144 20.686,212.446 20.766,212.668 20.767 C 212.889 20.769,213.071 20.850,213.071 20.949 C 213.071 21.047,212.985 21.128,212.881 21.128 C 212.777 21.128,212.738 21.202,212.794 21.294 C 212.850 21.385,212.754 21.496,212.581 21.541 C 212.340 21.604,212.361 21.629,212.668 21.644 C 212.935 21.658,213.071 21.778,213.071 22.001 C 213.071 22.519,213.415 22.693,214.704 22.830 C 216.046 22.972,216.652 22.766,216.652 22.168 C 216.652 21.812,216.632 21.807,216.324 22.085 C 215.518 22.814,214.005 22.125,213.929 20.994 L 213.890 20.412 212.809 20.415 C 212.045 20.416,211.807 20.468,211.996 20.591 M179.813 22.068 C 179.715 23.384,178.748 24.126,177.877 23.555 C 177.328 23.195,177.261 23.204,177.261 23.635 C 177.261 24.214,180.181 24.175,180.552 23.590 C 181.036 22.829,180.903 21.665,180.331 21.665 C 179.954 21.665,179.837 21.756,179.813 22.068 M218.018 22.493 C 218.155 23.964,218.233 24.019,220.110 23.977 C 221.721 23.941,221.756 23.949,221.817 24.369 C 221.898 24.936,222.169 25.246,222.582 25.246 C 222.847 25.246,222.919 25.379,222.919 25.873 C 222.919 26.470,222.948 26.500,223.545 26.500 L 224.172 26.500 224.138 30.662 C 224.119 32.952,224.075 34.356,224.039 33.782 L 223.974 32.739 222.864 32.797 C 221.804 32.853,221.752 32.878,221.698 33.348 C 221.569 34.474,220.436 33.969,220.313 32.730 C 220.227 31.866,220.127 31.736,219.517 31.688 C 218.537 31.611,218.253 31.698,218.052 32.140 C 217.893 32.488,217.714 32.587,217.244 32.587 C 216.607 32.587,216.566 32.533,216.389 31.470 C 216.167 30.134,213.071 29.693,213.071 30.998 C 213.071 31.407,212.151 31.456,211.477 31.083 C 211.072 30.859,211.067 30.834,211.379 30.659 C 211.787 30.431,211.571 30.110,210.605 29.513 C 209.760 28.991,206.292 28.827,205.832 29.288 C 205.315 29.805,205.476 30.090,206.107 29.775 C 207.299 29.181,210.007 29.811,209.792 30.633 C 209.742 30.824,209.794 30.977,209.909 30.979 C 210.045 30.980,210.035 31.033,209.882 31.130 C 209.742 31.219,210.306 31.326,211.287 31.395 C 212.758 31.500,212.973 31.475,213.381 31.154 C 214.178 30.527,215.398 30.937,215.398 31.833 C 215.398 32.639,215.569 32.766,216.648 32.766 C 217.216 32.766,217.999 32.654,218.387 32.517 C 219.273 32.205,219.696 32.405,219.696 33.138 C 219.696 33.956,220.848 34.274,222.133 33.809 C 222.891 33.535,223.341 33.856,223.233 34.591 C 223.141 35.217,223.818 35.293,224.530 34.736 C 225.379 34.072,226.321 34.593,226.321 35.728 C 226.321 36.395,226.555 36.537,226.834 36.038 C 227.347 35.121,228.989 35.865,229.001 37.019 C 229.007 37.644,229.140 37.688,230.947 37.650 C 231.455 37.640,231.531 37.691,231.454 37.988 C 231.381 38.265,231.412 38.296,231.603 38.137 C 232.293 37.565,233.833 38.454,233.852 39.436 C 233.862 39.964,233.878 39.981,234.025 39.615 C 234.475 38.495,236.347 39.310,236.347 40.626 L 236.347 41.244 236.762 40.855 C 237.614 40.054,238.675 40.588,238.675 41.818 C 238.675 42.573,238.821 42.666,239.350 42.250 C 239.937 41.788,240.215 41.806,240.856 42.346 C 241.149 42.592,241.533 42.793,241.711 42.793 C 242.198 42.793,242.410 43.164,242.459 44.104 L 242.503 44.955 242.935 44.489 C 243.184 44.220,243.479 44.065,243.632 44.124 C 243.778 44.180,244.053 44.226,244.244 44.226 C 244.441 44.226,244.680 44.420,244.795 44.673 C 244.926 44.959,245.146 45.121,245.405 45.121 C 245.959 45.121,246.403 45.607,246.366 46.174 C 246.320 46.890,246.369 47.029,246.554 46.712 C 246.647 46.553,246.906 46.442,247.131 46.465 C 247.355 46.488,247.800 46.518,248.120 46.530 C 248.642 46.551,248.702 46.608,248.702 47.090 C 248.702 47.583,248.753 47.628,249.318 47.628 C 249.898 47.628,249.938 47.667,250.004 48.299 C 250.042 48.668,250.088 47.540,250.104 45.792 L 250.134 42.614 249.508 42.614 L 248.881 42.614 248.881 40.834 L 248.881 39.055 249.552 38.985 L 250.224 38.914 249.552 38.884 L 248.881 38.854 248.878 38.004 C 248.877 37.536,248.816 37.246,248.744 37.359 C 248.370 37.945,246.553 37.300,246.553 36.582 C 246.553 36.435,246.328 36.347,245.949 36.347 C 245.315 36.347,245.121 35.984,245.121 34.796 L 245.121 34.364 244.729 34.729 C 243.760 35.632,242.934 34.968,242.733 33.124 C 242.695 32.776,242.227 32.583,241.951 32.803 C 241.813 32.913,241.525 32.907,241.146 32.786 C 240.821 32.683,240.262 32.553,239.903 32.499 C 239.186 32.389,239.048 32.137,239.024 30.886 C 239.013 30.290,238.984 30.236,238.853 30.561 C 238.292 31.952,236.705 31.324,236.705 29.711 C 236.705 29.089,236.636 29.069,236.127 29.543 C 235.243 30.367,234.435 29.892,234.339 28.492 C 234.311 28.086,234.280 27.753,234.270 27.753 C 234.259 27.753,234.034 27.954,233.768 28.201 C 233.217 28.711,232.564 28.778,232.152 28.367 C 231.816 28.030,231.774 26.748,232.095 26.618 C 232.218 26.568,232.151 26.521,231.946 26.514 C 231.726 26.505,231.479 26.677,231.341 26.934 C 230.661 28.205,228.936 27.225,229.222 25.729 C 229.304 25.301,228.916 25.297,226.911 25.705 C 226.307 25.828,226.276 25.786,226.102 24.620 C 226.050 24.274,225.246 23.973,225.246 24.300 C 225.246 24.584,224.212 25.071,223.875 24.946 C 223.316 24.738,222.919 24.145,222.919 23.518 C 222.919 22.866,221.659 22.567,221.430 23.165 C 221.028 24.212,219.115 23.553,219.013 22.331 C 218.963 21.732,218.907 21.665,218.449 21.665 C 217.953 21.665,217.942 21.685,218.018 22.493 M175.828 23.622 C 175.828 24.885,174.814 25.396,173.875 24.606 C 173.183 24.023,172.745 24.093,172.659 24.799 C 172.546 25.732,172.463 25.835,171.932 25.701 C 171.662 25.633,170.998 25.522,170.457 25.454 L 169.472 25.331 169.520 26.049 C 169.611 27.425,168.319 27.990,167.482 26.940 C 167.235 26.631,166.984 26.494,166.765 26.551 C 166.490 26.621,166.483 26.641,166.729 26.658 C 166.948 26.673,167.028 26.839,167.022 27.261 C 167.003 28.602,165.968 29.086,165.012 28.201 C 164.404 27.637,164.424 27.628,164.486 28.418 C 164.589 29.714,163.117 30.500,162.535 29.460 C 162.254 28.958,162.041 29.176,162.041 29.963 C 162.041 31.479,160.395 31.831,159.845 30.432 C 159.788 30.288,159.735 30.631,159.728 31.193 C 159.712 32.349,159.484 32.587,158.397 32.587 C 157.591 32.587,157.177 32.751,157.332 33.009 C 157.399 33.122,157.322 33.106,157.159 32.975 C 156.997 32.843,156.768 32.795,156.650 32.868 C 156.522 32.947,156.482 32.925,156.551 32.813 C 156.615 32.709,156.561 32.584,156.430 32.534 C 156.299 32.483,156.182 32.535,156.169 32.649 C 156.002 34.133,155.867 34.597,155.531 34.832 C 154.776 35.361,153.840 35.076,153.774 34.297 C 153.757 34.095,153.697 34.454,153.640 35.094 C 153.538 36.238,153.527 36.259,152.983 36.312 C 152.554 36.354,152.364 36.504,152.136 36.983 C 151.858 37.566,151.791 37.601,150.943 37.601 L 150.045 37.601 150.045 39.481 L 150.045 41.361 149.418 41.361 L 148.791 41.361 148.791 44.494 L 148.791 47.628 149.418 47.628 C 150.015 47.628,150.045 47.598,150.045 47.001 L 150.045 46.374 150.985 46.377 C 151.875 46.380,152.422 46.543,152.388 46.797 C 152.379 46.860,152.385 46.972,152.401 47.046 C 152.416 47.120,152.476 46.777,152.535 46.285 C 152.636 45.431,152.668 45.387,153.224 45.333 C 153.652 45.292,153.877 45.143,154.068 44.773 C 154.437 44.059,155.276 43.955,155.870 44.549 L 156.312 44.991 156.312 44.351 C 156.312 43.289,156.586 42.793,157.175 42.793 C 157.458 42.793,157.912 42.601,158.187 42.364 C 158.659 41.959,158.720 41.950,159.309 42.196 C 160.046 42.504,160.089 42.475,160.172 41.624 C 160.292 40.379,161.297 40.030,162.139 40.939 L 162.578 41.413 162.578 40.594 C 162.578 39.292,164.549 38.416,164.780 39.615 C 164.829 39.873,164.866 39.784,164.882 39.367 C 164.926 38.175,166.528 37.559,167.249 38.456 C 167.501 38.770,167.669 38.864,167.721 38.719 C 167.765 38.595,167.875 38.539,167.965 38.595 C 168.055 38.651,168.129 38.571,168.129 38.417 C 168.129 38.263,168.209 38.138,168.308 38.138 C 168.406 38.138,168.487 38.053,168.487 37.948 C 168.487 37.844,168.406 37.808,168.308 37.869 C 168.209 37.930,168.129 37.895,168.129 37.790 C 168.129 37.682,168.513 37.601,169.024 37.601 L 169.919 37.601 169.919 36.897 C 169.919 35.699,171.073 35.173,171.896 35.996 C 172.363 36.463,172.605 36.306,172.605 35.535 C 172.605 34.509,173.954 34.055,174.478 34.904 C 174.765 35.368,175.594 35.116,175.610 34.559 C 175.632 33.766,175.793 33.608,176.432 33.751 C 177.931 34.085,179.375 33.710,179.122 33.051 C 178.920 32.525,179.682 32.189,180.397 32.487 C 181.773 33.062,183.588 32.768,183.388 32.002 C 183.145 31.076,184.688 30.480,185.558 31.165 C 186.332 31.774,189.040 31.498,188.941 30.820 C 188.801 29.859,191.664 29.085,192.743 29.792 C 193.177 30.076,193.196 30.073,193.196 29.722 C 193.196 29.154,192.425 28.957,190.596 29.061 C 188.932 29.154,187.645 29.575,187.645 30.024 C 187.645 30.154,187.504 30.262,187.332 30.266 C 187.057 30.271,187.065 30.310,187.396 30.587 L 187.773 30.902 187.315 31.118 C 186.569 31.470,185.855 31.398,185.855 30.971 C 185.855 30.452,185.075 30.211,183.854 30.353 C 182.647 30.493,182.231 30.864,182.203 31.824 C 182.181 32.628,180.842 33.040,180.842 32.243 C 180.842 31.444,178.639 31.473,178.547 32.274 C 178.505 32.639,178.389 32.769,178.099 32.778 L 177.708 32.789 178.111 32.951 C 178.717 33.194,178.596 33.483,177.887 33.483 C 177.517 33.483,177.252 33.574,177.239 33.706 C 177.228 33.829,177.167 33.688,177.104 33.393 C 177.016 32.975,176.881 32.843,176.499 32.799 L 176.007 32.743 176.007 30.337 L 176.007 27.932 175.380 27.932 C 174.769 27.932,174.754 27.915,174.754 27.216 C 174.754 26.517,174.769 26.500,175.380 26.500 C 175.977 26.500,176.007 26.470,176.007 25.873 C 176.007 25.296,176.050 25.246,176.544 25.246 L 177.081 25.246 177.081 24.082 L 177.081 22.919 176.455 22.919 C 175.845 22.919,175.828 22.937,175.828 23.622 M230.927 38.305 C 230.877 38.496,230.936 38.690,231.057 38.737 C 231.207 38.794,231.251 38.682,231.196 38.390 C 231.096 37.868,231.045 37.852,230.927 38.305 M116.033 78.623 C 115.764 78.730,113.001 78.778,108.932 78.746 C 105.269 78.717,102.365 78.752,102.479 78.824 C 102.916 79.102,115.927 78.984,116.304 78.699 C 116.706 78.395,116.646 78.378,116.033 78.623 M282.660 78.827 C 282.767 79.001,295.995 78.998,296.268 78.824 C 296.381 78.752,293.347 78.693,289.526 78.693 C 285.704 78.693,282.614 78.753,282.660 78.827 M24.768 81.782 C 38.440 81.807,60.759 81.807,74.365 81.782 C 87.972 81.756,76.786 81.736,49.508 81.736 C 22.229 81.736,11.096 81.756,24.768 81.782 M155.640 81.782 C 179.743 81.807,219.183 81.807,243.286 81.782 C 267.388 81.757,247.668 81.736,199.463 81.736 C 151.258 81.736,131.538 81.757,155.640 81.782 M324.754 81.782 C 338.565 81.807,361.166 81.807,374.978 81.782 C 388.789 81.756,377.489 81.736,349.866 81.736 C 322.243 81.736,310.942 81.756,324.754 81.782 " stroke="none" fill="#64677c" fill-rule="evenodd"></path><path id="path4" d="M50.448 80.349 C 0.149 80.394,0.000 80.396,0.000 80.752 C 0.000 81.110,0.178 81.110,200.000 81.110 L 400.000 81.110 400.000 80.707 L 400.000 80.304 250.448 80.304 C 168.194 80.304,78.194 80.325,50.448 80.349 " stroke="none" fill="#9ba2b2" fill-rule="evenodd"></path></g></svg>